<?xml version="1.0" standalone="no"?>
<!DOCTYPE svg PUBLIC "-//W3C//DTD SVG 20010904//EN"
 "http://www.w3.org/TR/2001/REC-SVG-20010904/DTD/svg10.dtd">
<svg version="1.0" xmlns="http://www.w3.org/2000/svg"
 width="826.000000pt" height="853.000000pt" viewBox="0 0 826.000000 853.000000"
 preserveAspectRatio="xMidYMid meet">
<metadata>
Created by potrace 1.15, written by Peter Selinger 2001-2017
</metadata>
<g transform="translate(0.000000,853.000000) scale(0.100000,-0.100000)"
fill="#000000" stroke="none">
<path d="M4020 8274 c-407 -46 -763 -215 -1064 -504 -260 -250 -452 -567 -561
-925 -79 -262 -105 -469 -105 -845 l0 -266 63 -60 c34 -33 136 -128 227 -210
204 -184 248 -224 325 -295 33 -30 202 -184 375 -341 553 -500 772 -699 875
-793 55 -51 253 -231 440 -401 187 -170 464 -421 615 -559 152 -137 312 -283
357 -324 45 -41 87 -87 94 -103 16 -38 5 -351 -16 -493 -80 -529 -374 -976
-800 -1217 -128 -73 -259 -122 -407 -155 -119 -25 -400 -25 -518 1 -380 83
-706 311 -932 651 -119 179 -212 407 -258 635 -12 58 -25 108 -29 113 -4 4
-93 6 -197 5 l-189 -3 -3 -29 c-5 -37 22 -191 54 -316 76 -295 215 -579 403
-820 378 -488 976 -764 1544 -712 657 60 1216 468 1527 1114 172 360 230 650
230 1165 0 149 -3 278 -6 287 -3 9 -97 98 -207 199 -409 372 -564 513 -662
602 -55 51 -255 233 -445 405 -190 172 -368 333 -395 359 -28 25 -95 87 -150
136 -55 50 -105 95 -111 100 -6 6 -53 48 -105 95 -87 78 -125 114 -249 226
-25 23 -202 184 -395 359 -331 300 -502 457 -605 552 l-45 42 -4 86 c-4 117
16 367 39 484 66 323 230 642 443 860 290 298 622 444 1007 444 343 -1 652
-120 918 -356 265 -236 461 -587 531 -950 11 -54 25 -104 31 -112 11 -13 44
-15 199 -13 l186 3 -1 65 c-1 36 -12 112 -24 170 -95 453 -305 841 -616 1140
-268 258 -567 414 -933 486 -73 14 -377 27 -451 18z"/>
<path d="M5677 5913 c-4 -3 -7 -469 -7 -1035 l0 -1028 28 -29 c15 -16 101 -95
191 -176 123 -111 166 -144 172 -134 10 16 13 2368 3 2393 -5 14 -32 16 -193
16 -103 0 -191 -3 -194 -7z"/>
<path d="M2297 5093 c-4 -3 -7 -545 -7 -1204 0 -1075 2 -1199 16 -1213 13 -13
44 -16 180 -16 95 0 174 4 185 10 19 10 19 33 19 1049 0 975 -1 1040 -17 1059
-10 11 -70 66 -133 123 -63 57 -117 106 -120 109 -28 28 -101 90 -108 90 -5 0
-12 -3 -15 -7z"/>
</g>
</svg>
