<?xml version="1.0" encoding="utf-8"?>
<svg version="1.0" width="826.000000pt" height="853.000000pt" preserveAspectRatio="xMidYMid meet" xmlns="http://www.w3.org/2000/svg">
  <defs>
    <view id="view-1" viewBox="197.208 24.6 733.822 828.4">
      <title>View 1</title>
    </view>
  </defs>
  <g transform="matrix(0.106551, 0, 0, -0.1, 111.08298, 863.667438)" fill="#000000" stroke="none">
    <path d="M 4020 8274 C 3613 8228 3257 8059 2956 7770 C 2696 7520 2504 7203 2395 6845 C 2316 6583 2290 6376 2290 6000 L 2290 5734 L 2353 5674 C 2387 5641 2489 5546 2580 5464 C 2784 5280 2828 5240 2905 5169 C 2938 5139 3107 4985 3280 4828 C 3833 4328 4052 4129 4155 4035 C 4210 3984 4408 3804 4595 3634 C 4782 3464 5059 3213 5210 3075 C 5362 2938 5511.44 2778.845 5518.44 2762.845 C 5534.44 2724.845 5539.44 2248.217 5518.44 2106.217 C 5438.44 1577.217 5215.883 1241.907 4789.883 1000.907 C 4661.883 927.907 4029.842 910.421 3911.842 936.421 C 3531.842 1019.421 3312.72 1237.359 3086.72 1577.359 C 2967.72 1756.359 2881.346 2174.161 2877.346 2179.161 C 2873.346 2183.161 2315 2185 2315 2185 C 2315 2185 2334 1965 2366 1840 C 2442 1545 2581 1261 2769 1020 C 3147 532 3745 256 4313 308 C 4970 368 5524.975 651.976 5835.975 1297.976 C 6007.975 1657.976 6070 2072 6070 2587 C 6070 2736 6051.05 3013.955 6048.05 3022.955 C 6045.05 3031.955 5355.012 3644.658 5257.012 3733.658 C 5202.012 3784.658 5025.155 3951.416 4835.155 4123.416 C 4645.155 4295.416 2822.9 5949.037 2822.9 5949.037 C 2822.9 5949.037 2823.272 6370.994 2846.272 6487.994 C 2912.272 6810.994 3037.515 7106.777 3250.515 7324.777 C 3540.515 7622.777 3794.888 7741.609 4179.888 7741.609 C 4522.888 7740.609 4777.218 7606.106 5043.218 7370.106 C 5308.218 7134.106 5484.362 6391.944 5490.362 6383.944 C 5501.362 6370.944 5704 6390 5859 6392 L 6045 6395 L 6044 6460 C 6043 6496 6032 6572 6020 6630 C 5925 7083 5715 7471 5404 7770 C 5136 8028 4837 8184 4471 8256 C 4398 8270 4094 8283 4020 8274 Z" style="fill: rgb(255, 255, 255);"/>
    <path d="M 5518.802 5924.851 C 5514.802 5921.851 5545.268 3968.769 5545.268 3968.769 C 5545.268 3968.769 6055 3501 6061 3511 C 6071 3527 6074 5879 6064 5904 C 6059 5918 5521.802 5928.851 5518.802 5924.851 Z" style="fill: rgb(255, 255, 255);"/>
    <path d="M 2297 5093 C 2293 5090 2292 2690 2306 2676 C 2319 2663 2856.433 2679.689 2867.433 2685.689 C 2886.433 2695.689 2875.036 4607.846 2859.036 4626.846 C 2849.036 4637.846 2319 5100 2312 5100 C 2307 5100 2300 5097 2297 5093 Z" style="fill: rgb(255, 255, 255);"/>
  </g>
</svg>