<?xml version="1.0" encoding="UTF-8"?>
<svg data-bbox="9.3 3.542 1093.073 450.858" viewBox="0 0 1112 460" height="613.333" width="1482.667" xmlns="http://www.w3.org/2000/svg" data-type="shape">
    <g>
        <path d="M105.6 4C81.1 7 60.9 17.6 43 36.7c-12.2 13.1-21.2 28.5-26.9 46-5 15.4-6.1 23.4-6.1 45.7v20.1l3.4 3c1.9 1.6 44.6 40.5 95 86.3 60.2 54.8 91.8 84.2 92.2 85.8 1 3.8-.6 23.4-2.6 33.2-3.9 19.2-13.6 36.9-27.3 49.9-9 8.5-18.8 14.5-30.5 18.6-7.6 2.7-10.4 3.1-21.9 3.5-12 .4-14 .2-22.5-2.2-29.9-8.6-52-33.1-60.6-67.4l-2.8-10.7-11.3-.3-11.3-.3.7 5.3c1.6 12.5 7.3 30.7 13.1 42.1 3 5.9 11.6 18.1 17.1 24.4 12.1 13.9 31.5 26.3 49.9 31.9 8.1 2.5 10.4 2.7 25.4 2.8 19 0 26.4-1.5 40.7-8.3 31.9-15.3 54.2-44.6 63.6-83.6 1.4-6.2 2-13.1 2.4-30.5l.5-22.6-95.6-86.8L32 135.7V125c0-39.3 19.8-73.3 51.3-88 10.9-5.1 18.2-7 29.7-7.6 39-2.3 75.3 28.3 84.6 71.3l1.7 8.1 3.6.6c2 .3 7.1.6 11.4.6h7.7v-3c0-5-2.9-17.5-6.2-26.8-13.7-39-44.2-67.1-80.7-74.7-9.2-1.8-21.4-2.5-29.5-1.5z"/>
        <path d="M681 74.1c-4.1.5-9.1 2.1-13.5 4.3-18.5 9.1-28.5 28.8-28.5 56 0 21.4 5.7 37.5 17 47.9 8.2 7.7 14.4 9.9 28.5 10.5 15.1.6 25.7-2.3 35.3-9.5 2.9-2.2 3.2-2.9 3.2-7.8v-5.4l-3 .9c-1.6.5-4.3 1.8-5.9 3-1.7 1.1-5.6 3.3-8.8 4.8-5.1 2.3-7 2.7-15.8 2.7-8.7 0-10.7-.3-15.5-2.6-7.6-3.5-12.1-7.7-15.8-14.7-4.3-8.1-6.2-16.8-6.2-29.3 0-22.4 8.2-40.1 21.7-46.9 3.5-1.7 7-2.5 13-2.8 9.8-.5 15.6 1.1 25.4 6.9 9 5.4 10.9 5.1 10.9-2 0-10-22.2-18.4-42-16z"/>
        <path d="M347 74.7c-5.2 1-5-1.4-5 59.8 0 62.8-.4 58.5 5.8 58.5 6 0 5.7 2.5 6.2-51.8l.5-49.9 26.9 47.8c14.8 26.3 28.2 49 29.8 50.6 2.4 2.3 3.8 2.8 7.8 2.8 2.7 0 5.5-.6 6.2-1.3 1-1 1.4-13.2 1.6-58.3l.3-56.9-2.7-1c-1.5-.6-4.2-.8-6-.4l-3.4.6-.2 49.5-.3 49.5-6.8-12.3c-28.5-51.3-47.5-84.4-49.2-85.4-2.4-1.5-8.1-2.4-11.5-1.8z"/>
        <path d="M530.2 75.7c-2.5 2.2-42.5 111.2-42 114.6.3 1.9 1 2.2 5.6 2.5l5.2.3 1.8-4.3c1-2.4 9.2-25.5 18.3-51.5 9-26 16.7-46.9 17-46.5.4.4 8.4 22.5 17.9 49.2 9.5 26.7 17.7 49.5 18.3 50.7.8 1.8 1.8 2.3 4.6 2.3 6.5 0 8.2-.9 7.4-3.9-.9-3.7-39.8-110.2-41.2-112.9-1-1.8-2-2.2-6-2.2-3.2 0-5.6.6-6.9 1.7z"/>
        <path d="M788.3 74.6c-1 .5-1.3 13.2-1.3 58.9v58.4l3.5.7c1.9.3 4.6.3 6 0l2.5-.6-.2-58.8-.3-58.7-4.5-.2c-2.5-.1-5.1 0-5.7.3z"/>
        <path d="M201 195.8v58.8l7.3 6.9c3.9 3.9 8.9 8.6 11 10.5l3.7 3.4V137h-22v58.8z"/>
        <path d="M9.6 223.3c-.4 21.7-.4 52.7 0 69l.7 29.7H32V202.3l-8.2-7.5c-4.6-4.1-9.5-8.2-10.9-9.1l-2.6-1.7-.7 39.3z"/>
        <path d="M359.3 298c-11.4 2.3-21.2 9.9-24.8 19.3-2.7 7.1-1.8 18.6 2 25.6 4.3 7.8 10.3 12.5 26.4 20.4 19.3 9.4 24.1 13.8 24.1 22.2 0 4-2.2 10-4.8 12.8-7.2 8-23.1 8.3-38.3.7-8.3-4.2-11-4.8-12.7-2.8-3.7 4.7-1.8 12.7 3.8 16.3 11.4 7.2 31.7 9.3 45 4.7 18.5-6.3 27.4-22.6 22.5-41-1.6-5.8-2.6-7.5-7.9-12.8-5.2-5.1-8.5-7.3-21.8-13.8-17.1-8.4-22.1-12.5-23.4-19.1-.8-4.5 1.8-11.7 5.3-14.5 6.2-4.9 17-5 27-.3 3.2 1.5 7 3.3 8.5 4 2.3 1.1 3 1 4.9-.6 2.9-2.3 3-10.2.2-13.3-5.8-6.5-23.3-10.3-36-7.8z"/>
        <path d="M779.9 298.4c-21.2 4.9-31.3 24.1-22.5 43.1 4.1 8.9 9.2 12.9 28.3 22.5 7.8 3.9 15.7 8.5 17.6 10.3 4.1 3.8 6 9.6 4.8 14.7-2.1 9.1-6.8 13.3-16.9 15.1-8.1 1.4-15.8-.1-25.7-5.1-4.4-2.2-8.7-4-9.6-4-5.1 0-6.7 9.7-2.4 14.8 2.9 3.5 10.3 6.8 19.4 8.8 17.7 3.7 34.7-.8 44.6-11.8 5.5-6.1 7.5-12 7.5-21.8 0-6.6-.4-8.6-3.1-13.8-4.1-8.2-8.7-12-25.4-20.4-17.2-8.7-20.9-11.2-23.5-15.3-4.3-6.9-1.4-17.6 5.7-21.1 2.7-1.4 5.9-1.9 10.9-1.8 6 0 8.2.6 14.8 3.7 4.3 2 8.9 3.7 10.2 3.7 2.9 0 4.4-2.7 4.4-8 0-3.3-.6-4.8-2.9-6.9-6.4-6-24.7-9.4-36.2-6.7z"/>
        <path d="m471.2 299-2.2.9.2 58.8.3 58.8 3.8.9c2.3.6 5.1.6 7.5 0l3.7-.9.3-58.6.2-58.6-2.5-1.1c-3-1.4-8.1-1.5-11.3-.2z"/>
        <path d="m1029 299.3-2.5 1.3-.3 57.4-.2 57.5 2.1 1.7c2.3 2 7.4 2.3 11.3.8l2.6-1 .1-22.2c0-12.3.4-24.1.7-26.4l.7-4.1 20 24.9c11 13.8 21.3 26.1 22.8 27.4 2.2 1.8 4 2.4 7.8 2.4 6.3 0 9.4-2.6 7.9-6.5-.6-1.5-10.7-14.5-22.5-29.1-11.9-14.5-21.8-27-22.1-27.8-.4-1.1 13-17 37.3-44 3.2-3.6 5.3-6.9 5.3-8.2 0-3.6-4.1-5.8-9.7-5.1-5.5.6-5.1.2-30.3 29.2l-16.5 19-.7-5c-.3-2.8-.7-13.2-.7-23.2-.1-17-.2-18.3-2-19.3-2.7-1.4-8.1-1.2-11.1.3z"/>
        <path d="m561.9 300.9-2.4 1.9v56.7c0 55.5 0 56.7 2 58.2 2.3 1.7 10.9 1.3 12.8-.6.9-.9 1.3-13.2 1.5-46.9l.3-45.7 19.2 45.6c10.6 25.1 19.9 46.4 20.7 47.4 1.1 1.3 2.5 1.6 6.3 1.2 2.7-.2 5.4-1 6.1-1.8.7-.8 10.2-21.6 21.2-46.4l19.9-45 .5 45.4c.5 43.8.6 45.3 2.5 46.8 2.8 2 11.4 1.2 13.2-1.3 1.1-1.5 1.3-11.8 1.1-57.5-.3-65.3.7-59.9-11.6-59.9-7 0-7.6.2-10.6 3.2-2.3 2.4-8.4 15.1-22.6 47l-19.4 43.7-2.9-6.7c-1.6-3.7-10-23.6-18.8-44.2-18.6-43.9-18-43-29.3-43-5.8 0-7.9.4-9.7 1.9z"/>
        <path d="M892.5 301.5c-1.9 1.8-2.5 3.5-2.5 7v4.5h31.6c19.8 0 32.2-.4 33.5-1 1.4-.8 1.9-2.1 1.9-5.1 0-8.3 1.8-7.9-32.1-7.9h-30l-2.4 2.5z"/>
        <path d="M890 356v7h28.5c27.7 0 28.6-.1 30.6-2.1 1.7-1.7 2-2.9 1.6-5.6-1.1-6.5-.1-6.3-31.8-6.3H890v7z"/>
        <path d="M890.2 409c.9 9.3-.4 9 34.9 9 29.5 0 30.9-.1 31.9-1.9.5-1.1 1-3.4 1-5.1 0-1.7-.5-4-1-5.1-1-1.8-2.5-1.9-34.2-1.9h-33.1l.5 5z"/>
    </g>
</svg>
